<?xml version="1.0" encoding="utf-8"?>
<svg version="1.1" xmlns="http://www.w3.org/2000/svg" viewBox="0 0 100 111.7">
<style type="text/css">
	.st0{fill-rule:evenodd;clip-rule:evenodd;fill:#000;}
</style>
<path class="st0" d="M78.8,111.7L78.8,111.7l-0.6,0C64.9,111,46.9,98.4,30.1,77.9l-6.2-7.6
	C7.1,49.9-1.8,29.9,0.3,16.9C1.8,7.7,15.3,0,23.1,0c3.8,0,5.2,1.9,5.7,3.1c4.4,7.8,9.8,21.5,9.8,26.4l0,0.3l-0.1,0.3
	c-1,2.6-3.1,3.8-5,4.9c-2.5,1.4-3.9,2.4-4.1,5.1c-0.1,0.8,0.7,4.6,11.8,18.3l4.7,5.8c11.1,13.2,14.6,14.6,15.5,14.8
	c2.7,0.4,3.9-0.8,5.9-2.9c1.5-1.6,3.1-3.5,5.9-3.9l0.3,0l0.3,0.1c4.8,1,17.3,9.1,24.3,15c1,0.7,2.8,2.7,1.4,7.1
	C97.2,101.3,87.6,111.7,78.8,111.7L78.8,111.7L78.8,111.7z"/>
</svg>
