<?xml version="1.0" encoding="utf-8"?>
<svg version="1.1" xmlns="http://www.w3.org/2000/svg" viewBox="0 0 100 120">
<style type="text/css">
	.st0{fill-rule:evenodd;clip-rule:evenodd;fill:#000;}
</style>
<path class="st0" d="M92.8,77.6c4.6-7.7,7.2-16.8,7.2-26.4C100,22.9,77.6,0,50,0S0,22.9,0,51.2
	c0,9.6,2.6,18.7,7.1,26.4c0.2,0.9,0.7,1.8,1.4,2.5l0.3,0.4c3.3,4.8,7.3,9,12,12.4l24.7,25.6c1.5,1.5,3.6,2,5.5,1.4
	c1.6,0.1,3.2-0.4,4.4-1.6L80.1,92c4.2-3.3,7.9-7.2,10.9-11.6l0.4-0.4C92.1,79.3,92.6,78.4,92.8,77.6L92.8,77.6z M50,35.3
	c8.6,0,15.5,7.1,15.5,15.9c0,8.8-6.9,15.9-15.5,15.9c-8.6,0-15.5-7.1-15.5-15.9C34.5,42.4,41.4,35.3,50,35.3L50,35.3z"/>
</svg>
