<?xml version="1.0" encoding="utf-8"?>
<svg version="1.1" xmlns="http://www.w3.org/2000/svg" viewBox="0 0 100 88.2">
<style type="text/css">
	.st0{fill-rule:evenodd;clip-rule:evenodd;fill:#000;}
</style>
<path class="st0" d="M37.5,74.5L37.5,74.5h-4.7c-0.8,0-1.5,0.3-2,0.8L18.9,86.9c-0.8,0.8-2,1.3-3.3,1.3l0,0l0,0
	c0,0,0,0-0.1,0c-1.3,0-2.4-0.5-3.2-1.3c0,0,0,0,0-0.1c-0.2-0.2-0.4-0.4-0.5-0.6c-0.1-0.1-0.1-0.2-0.2-0.3c-0.1-0.2-0.2-0.3-0.3-0.5
	c0-0.1,0-0.2-0.1-0.2c-0.1-0.2-0.2-0.4-0.2-0.6c-0.1-0.3-0.1-0.6-0.1-0.9l0,0v-9.1H8c-4.4-0.2-8-4.8-8-9.1V11.1C0,6.5,4.8,0,12.6,0
	h73.8C95.1,0,100,6.6,100,10.9v53.7c0,6.2-7.9,10.2-13.7,10L37.5,74.5 M26.6,28.9c-5.2,0-9.4,4.1-9.4,9.1c0,5.1,4.2,9.1,9.4,9.1
	c5.2,0,9.4-4.1,9.4-9.1C35.9,33,31.7,28.9,26.6,28.9L26.6,28.9 M50,28.9c-5.2,0-9.4,4.1-9.4,9.1c0,5.1,4.2,9.1,9.4,9.1
	c5.2,0,9.4-4.1,9.4-9.1C59.4,33,55.2,28.9,50,28.9L50,28.9 M73.4,28.9c-5.2,0-9.4,4.1-9.4,9.1c0,5.1,4.2,9.1,9.4,9.1
	c5.2,0,9.4-4.1,9.4-9.1C82.8,33,78.6,28.9,73.4,28.9L73.4,28.9 M73.4,28.9"/>
</svg>
