<?xml version="1.0" encoding="utf-8"?>
<svg version="1.1" xmlns="http://www.w3.org/2000/svg" viewBox="1529.9 367.1 184.3 83.4" width="65" height="29">
    <style type="text/css">
        .st0{fill:rgba(174, 194, 63, 1);}
    </style>
    <path class="st0" d="M1714.2,408.7c-3.6,1.1-12,7.9-18.2,17.4c-6.4,9.8-12.3,24.6-28.2,24.4c-0.5,0-1,0-1.5,0l0,0
	c-0.1,0-0.3,0-0.5,0h-126.9c-5,0-9-3.9-9-8.6v-66.2c0-4.8,4.1-8.6,9-8.6h126.8c0.1,0,0.2,0,0.3,0h0.1c0.5,0,1,0,1.4,0
	c15.9-0.1,21.4,14.8,28.2,24.4C1701.8,400.3,1710.6,407.8,1714.2,408.7z"/>
</svg>
